<svg xmlns="http://www.w3.org/2000/svg" id="Layer_2" viewBox="0 0 450.44 84.44">
    <defs>
        <style>.cls-1{fill:#231f20}.cls-3{fill:#ff5023}</style>
    </defs>
        <path
            d="M141.98 84.44c-5.75 0-10.67-1.14-14.76-3.43s-7.23-5.48-9.41-9.59c-2.18-4.1-3.28-8.87-3.28-14.29s1.09-10.19 3.28-14.29c2.18-4.1 5.32-7.3 9.41-9.59s9.01-3.43 14.76-3.43c5.2 0 9.7.94 13.5 2.81 3.8 1.87 6.75 4.52 8.85 7.93 2.09 3.41 3.15 7.42 3.17 12.02h-17.66c-.25-2.78-1.05-4.9-2.4-6.36-1.34-1.46-3.07-2.19-5.19-2.19-1.66 0-3.1.48-4.34 1.43-1.24.95-2.21 2.39-2.9 4.31-.69 1.92-1.03 4.33-1.03 7.22s.34 5.31 1.03 7.22c.69 1.92 1.66 3.36 2.9 4.31 1.24.95 2.69 1.43 4.34 1.43 1.4 0 2.64-.33 3.72-.98 1.08-.65 1.96-1.62 2.64-2.9.68-1.28 1.09-2.83 1.22-4.67h17.66c-.07 4.67-1.14 8.73-3.21 12.19-2.07 3.46-4.99 6.13-8.78 8.02-3.78 1.88-8.29 2.83-13.54 2.83ZM168.39 83.48V30.51h19.04v52.97h-19.04Zm9.52-58.49c-2.58 0-4.78-.85-6.62-2.55-1.84-1.7-2.76-3.75-2.76-6.14s.92-4.44 2.76-6.14c1.84-1.7 4.05-2.55 6.62-2.55s4.81.85 6.64 2.55c1.83 1.7 2.74 3.75 2.74 6.14s-.91 4.44-2.74 6.14c-1.83 1.7-4.04 2.55-6.64 2.55ZM209.46 53.68v29.79h-19.04V30.51h18.07v10.07h.55c1.15-3.36 3.18-5.99 6.09-7.9 2.91-1.91 6.3-2.86 10.19-2.86s7.01.86 9.78 2.57c2.77 1.71 4.92 4.06 6.45 7.05 1.53 2.99 2.28 6.4 2.26 10.24v33.79h-19.03V53.68c.02-2.62-.64-4.68-1.98-6.17-1.34-1.49-3.21-2.24-5.6-2.24-1.56 0-2.93.34-4.09 1.02-1.16.68-2.05 1.64-2.67 2.9-.62 1.25-.94 2.75-.97 4.5ZM271.65 84.44c-5.66 0-10.52-1.09-14.6-3.26s-7.22-5.3-9.41-9.38c-2.2-4.08-3.29-8.97-3.29-14.67s1.1-10.25 3.31-14.34 5.32-7.28 9.35-9.55c4.02-2.28 8.77-3.41 14.24-3.41 4 0 7.62.62 10.86 1.86 3.24 1.24 6.01 3.04 8.31 5.4 2.3 2.36 4.07 5.21 5.31 8.57 1.24 3.36 1.86 7.14 1.86 11.35v4.41h-47.31V50.94h29.79c-.02-1.52-.41-2.86-1.16-4.02a7.793 7.793 0 0 0-3-2.72c-1.25-.65-2.67-.98-4.26-.98s-2.95.33-4.24.98c-1.29.66-2.32 1.56-3.09 2.71s-1.18 2.49-1.22 4.03v11.31c0 1.7.36 3.22 1.07 4.55a7.794 7.794 0 0 0 3.07 3.14c1.33.76 2.94 1.14 4.83 1.14 1.31 0 2.51-.18 3.6-.55 1.09-.37 2.03-.9 2.81-1.6.78-.7 1.36-1.55 1.72-2.53h17.38c-.6 3.68-2.01 6.87-4.24 9.57-2.23 2.7-5.18 4.79-8.85 6.28-3.67 1.48-7.95 2.22-12.85 2.22Z"/>
        <path
            d="M346.38 47.75h-17.52c-.09-1.08-.47-2.01-1.14-2.79-.67-.78-1.52-1.38-2.57-1.81-1.05-.42-2.2-.64-3.47-.64-1.63 0-3.03.3-4.21.9-1.17.6-1.75 1.45-1.72 2.55-.02.78.32 1.51 1.02 2.17.7.67 2.06 1.18 4.09 1.55l10.76 1.93c5.43.99 9.47 2.65 12.12 4.98s3.99 5.45 4.02 9.36c-.02 3.77-1.14 7.04-3.36 9.81s-5.24 4.91-9.07 6.41c-3.83 1.51-8.19 2.26-13.09 2.26-8.09 0-14.42-1.66-18.98-4.97-4.56-3.31-7.11-7.68-7.64-13.1h18.9c.25 1.68 1.09 2.97 2.5 3.88 1.41.91 3.2 1.36 5.36 1.36 1.75 0 3.19-.3 4.33-.9 1.14-.6 1.72-1.45 1.74-2.55-.02-1.01-.52-1.82-1.5-2.41-.98-.6-2.5-1.08-4.57-1.45L313 62.63c-5.4-.94-9.45-2.74-12.14-5.38-2.69-2.64-4.02-6.05-4-10.21-.02-3.68.95-6.8 2.91-9.36 1.97-2.56 4.78-4.52 8.45-5.86 3.67-1.34 8.02-2.02 13.05-2.02 7.66 0 13.7 1.59 18.12 4.76 4.43 3.17 6.75 7.56 6.98 13.17ZM347.91 83.48V30.51h19.04v52.97h-19.04Zm9.52-58.49c-2.57 0-4.78-.85-6.62-2.55-1.84-1.7-2.76-3.75-2.76-6.14s.92-4.44 2.76-6.14c1.84-1.7 4.05-2.55 6.62-2.55s4.81.85 6.64 2.55c1.83 1.7 2.74 3.75 2.74 6.14s-.91 4.44-2.74 6.14-4.04 2.55-6.64 2.55Z"/>
        <path
            d="M401.06 30.51V44.3h-34.9V30.51h34.9Zm-28.14-12.69h19.03v48.62c0 .74.13 1.35.38 1.84s.64.86 1.17 1.1c.53.24 1.21.36 2.03.36.57 0 1.25-.07 2.02-.21.77-.14 1.34-.25 1.71-.35l2.76 13.38c-.85.25-2.06.56-3.64.93s-3.44.61-5.6.72c-4.37.23-8.03-.22-11-1.36-2.97-1.14-5.2-2.94-6.69-5.4-1.49-2.46-2.22-5.54-2.17-9.24V17.82Z"/>
        <path
            d="M424.51 84.44c-5.66 0-10.52-1.09-14.6-3.26s-7.22-5.3-9.41-9.38c-2.2-4.08-3.29-8.97-3.29-14.67s1.1-10.25 3.31-14.34 5.32-7.28 9.34-9.55c4.02-2.28 8.77-3.41 14.24-3.41 4 0 7.62.62 10.86 1.86s6.01 3.04 8.31 5.4 4.07 5.21 5.31 8.57c1.24 3.36 1.86 7.14 1.86 11.35v4.41h-47.31V50.94h29.79c-.02-1.52-.41-2.86-1.15-4.02a7.793 7.793 0 0 0-3-2.72c-1.25-.65-2.67-.98-4.26-.98s-2.95.33-4.24.98c-1.29.66-2.32 1.56-3.09 2.71s-1.18 2.49-1.22 4.03v11.31c0 1.7.36 3.22 1.07 4.55s1.74 2.38 3.07 3.14c1.33.76 2.94 1.14 4.83 1.14 1.31 0 2.51-.18 3.6-.55 1.09-.37 2.03-.9 2.81-1.6.78-.7 1.36-1.55 1.72-2.53h17.38c-.6 3.68-2.01 6.87-4.24 9.57-2.23 2.7-5.18 4.79-8.85 6.28-3.67 1.48-7.95 2.22-12.84 2.22Z"/>
        <path
            d="M96.36 16.66 89.42 1.82l-18.15 8.47-45.69 21.3h17.24l24.94-11.63 5.43 11.63h20.83c-3.69-3.42-3.9-9.18-.49-12.86a8.89 8.89 0 0 1 2.84-2.06Z"
            class="cls-3"/>
        <path fill="#c6c5ca" d="m67.76 19.95 5.43 11.64H42.82l24.94-11.64z"/>
        <path fill="#fbb040"
              d="M98 57.07c0 5.03 4.08 9.1 9.1 9.1v16.38H12.44V66.17c5.03 0 9.1-4.08 9.1-9.1s-4.08-9.1-9.1-9.1V31.59h94.67v16.38c-5.03 0-9.1 4.08-9.1 9.1Z"/>
        <path fill="#c0ab91" d="M39.74 38.87h40.05v36.41H39.74z"/>
        <path
            d="M21.54 57.07c0 1.31-.28 2.6-.82 3.79-2.19-4.42-7.51-6.28-11.98-4.19L1.82 41.81l10.61-4.93v11.09c5.03 0 9.1 4.08 9.1 9.1Z"
            class="cls-3"/>
        <path
            d="M30.64 35.23h3.64v7.28h-3.64zM30.64 44.33h3.64v7.28h-3.64zM30.64 53.43h3.64v7.28h-3.64zM30.64 62.53h3.64v7.28h-3.64zM30.64 71.64h3.64v7.28h-3.64zM85.26 35.23h3.64v7.28h-3.64zM85.26 44.33h3.64v7.28h-3.64zM85.26 53.43h3.64v7.28h-3.64zM85.26 62.53h3.64v7.28h-3.64zM85.26 71.64h3.64v7.28h-3.64z"
            class="cls-1"/>
        <path
            d="M107.1 49.79c1.01 0 1.82-.82 1.82-1.82V31.59c0-1.01-.82-1.82-1.82-1.82H94.82c-2.71-2.9-2.55-7.44.34-10.15.58-.54 1.24-.98 1.97-1.31.91-.43 1.3-1.51.88-2.42L91.08 1.05c-.43-.91-1.51-1.3-2.42-.88L25.18 29.76H12.44c-1.01 0-1.82.82-1.82 1.82v4.14l-9.56 4.44a1.83 1.83 0 0 0-.89 2.42l6.92 14.86c.42.91 1.51 1.31 2.42.88 3.25-1.49 7.1-.4 9.09 2.57a7.281 7.281 0 0 1-6.17 3.46c-1.01 0-1.82.82-1.82 1.82v16.38c0 1.01.82 1.82 1.82 1.82h94.67c1.01 0 1.82-.82 1.82-1.82V66.17c0-1.01-.82-1.82-1.82-1.82a7.28 7.28 0 0 1 0-14.56ZM88.55 4.24l5.46 11.68a10.938 10.938 0 0 0-3.7 13.62c.04.08.1.15.14.23h-16.1l-4.93-10.58c-.43-.91-1.51-1.3-2.42-.88L42.42 29.77H33.8L88.55 4.24ZM70.33 29.76h-19.3l15.85-7.39 3.45 7.39ZM9.69 54.39l-5.44-11.7 6.37-2.95v8.23c0 1.01.82 1.82 1.82 1.82 3.86 0 7.04 3.03 7.24 6.88a11.005 11.005 0 0 0-9.99-2.28Zm95.59 13.45v12.89H14.26V67.84c5.95-1 9.96-6.63 8.96-12.58a10.92 10.92 0 0 0-8.96-8.96V33.41h91.03V46.3c-5.95 1-9.96 6.63-8.96 12.58a10.92 10.92 0 0 0 8.96 8.96Z"
            class="cls-1"/>
        <path
            d="M79.79 37.05H39.74c-1.01 0-1.82.82-1.82 1.82v36.41c0 1.01.82 1.82 1.82 1.82h40.05c1.01 0 1.82-.82 1.82-1.82V38.87c0-1.01-.82-1.82-1.82-1.82Zm-1.82 36.41H41.56V40.69h36.41v32.77ZM71.169 14.353l3.299-1.539 3.077 6.598-3.3 1.539zM75.027 22.596l3.3-1.537 3.075 6.598-3.3 1.538z"
            class="cls-1"/>
</svg>
