<?xml version="1.0" standalone="no"?>
<!DOCTYPE svg PUBLIC "-//W3C//DTD SVG 20010904//EN"
 "http://www.w3.org/TR/2001/REC-SVG-20010904/DTD/svg10.dtd">
<svg version="1.0" xmlns="http://www.w3.org/2000/svg"
 width="700.000000pt" height="700.000000pt" viewBox="0 0 700.000000 700.000000"
 preserveAspectRatio="xMidYMid meet">
<metadata>
Created by potrace 1.14, written by Peter Selinger 2001-2017
</metadata>
<g transform="translate(0.000000,700.000000) scale(0.100000,-0.100000)"
fill="#000000" stroke="none">
<path d="M5530 6028 c-149 -71 -293 -138 -295 -138 -2 0 -59 -26 -126 -59 -68
-32 -153 -72 -189 -88 -293 -136 -655 -305 -749 -349 -62 -30 -115 -54 -117
-54 -2 0 -74 -34 -159 -75 -86 -41 -158 -75 -160 -75 -2 0 -119 -54 -262 -121
-142 -66 -285 -133 -318 -148 -33 -16 -96 -45 -140 -66 -44 -21 -141 -66 -215
-100 -74 -34 -236 -110 -360 -167 -124 -58 -250 -117 -280 -131 -30 -13 -104
-48 -165 -77 -60 -29 -139 -66 -175 -83 l-65 -31 -400 -1 c-298 -1 -406 -4
-423 -13 -48 -27 -56 -55 -57 -203 -1 -76 -3 -140 -5 -142 -3 -3 -30 -16 -60
-30 -30 -14 -90 -42 -132 -61 -157 -72 -235 -109 -319 -148 -132 -63 -145
-101 -80 -240 21 -46 85 -182 141 -303 56 -121 116 -249 133 -285 118 -255
125 -269 156 -284 39 -21 56 -20 127 5 119 41 242 34 353 -19 58 -29 161 -122
161 -146 0 -8 -23 -40 -51 -70 -69 -75 -163 -121 -278 -135 -88 -11 -112 -24
-135 -71 -9 -19 -12 -155 -12 -541 1 -481 2 -517 19 -543 10 -15 33 -33 50
-40 25 -10 635 -12 2887 -10 1570 1 2862 2 2871 3 20 1 52 29 67 58 16 29 18
1036 3 1076 -15 38 -62 64 -122 66 -61 2 -155 32 -211 67 -154 97 -234 295
-191 469 30 120 120 237 219 283 27 13 56 27 65 32 9 4 38 11 65 15 27 3 64 8
82 11 47 6 69 20 87 54 23 44 23 1031 1 1085 -25 60 -32 60 -453 60 l-378 0
-20 24 c-108 134 -125 341 -39 488 33 56 108 129 168 162 60 33 88 68 88 112
1 24 -43 129 -142 339 -78 168 -158 339 -177 380 -104 223 -123 257 -148 268
-38 17 -84 14 -135 -10z"/>
</g>
</svg>
