<svg xmlns="http://www.w3.org/2000/svg" viewBox="0 0 204.7 37.6"><defs/><defs><linearGradient id="a" x1="8.4" x2="41.5" y1="44.6" y2="5.1" gradientUnits="userSpaceOnUse"><stop offset=".1" stop-color="#005476"/><stop offset=".8" stop-color="#00adff"/></linearGradient><linearGradient id="b" x1="57.9" x2="83.2" y1="13.8" y2="28.4" gradientUnits="userSpaceOnUse"><stop offset=".3" stop-color="#960000"/><stop offset=".3" stop-color="#ab0000"/><stop offset=".4" stop-color="#c90000"/><stop offset=".4" stop-color="#e10000"/><stop offset=".5" stop-color="#f20000"/><stop offset=".6" stop-color="#fc0000"/><stop offset=".7" stop-color="red"/></linearGradient><linearGradient id="c" x1="44.8" x2="44.8" y2="37.6" gradientUnits="userSpaceOnUse"><stop offset=".1" stop-color="#3a7e24"/><stop offset=".3" stop-color="#569528"/><stop offset=".5" stop-color="#71ac2b"/><stop offset=".7" stop-color="#81b92d"/><stop offset=".8" stop-color="#87be2e"/></linearGradient><linearGradient id="d" x1="42.5" x2="74" y1="31.5" y2="13.3" gradientUnits="userSpaceOnUse"><stop offset=".1" stop-color="#a5e039"/><stop offset=".3" stop-color="#a1dd39"/><stop offset=".5" stop-color="#94d438"/><stop offset=".6" stop-color="#80c637"/><stop offset=".8" stop-color="#68b536"/></linearGradient></defs><g data-name="Layer 2"><g data-name="Layer 1"><path fill="url(#a)" d="M0 37.6l42.3-16.4L35.5 0 0 37.6z"/><path fill="url(#b)" d="M72 9.7l-16.4 8.1L78 37.6 72 9.7z"/><path fill="url(#c)" fill-rule="evenodd" d="M35.5 0L46 37.6l8.2-21L35.5 0z"/><path fill="url(#d)" fill-rule="evenodd" d="M54.2 16.6l-8.2 21L72 9.7l-17.8 6.9z"/><path fill="#a6a8ab" d="M175.8 10.6h-1.7v1.8h1.7zm-20.7 0h-1.7v1.8h1.7zm0 4.9H151v1h2.8V27H149v-17h-3.6v1h2.2v6.9a4.7 4.7 0 00-4.4-2.6c-3.8 0-5.9 2.8-5.9 6.4 0 3.8 1.9 6.6 6 6.6a4.8 4.8 0 004.3-2.7v2.4h9.7v-1h-2.2zm-11.7 11.6c-3.4 0-4.5-2.5-4.5-5.5 0-2.8 1.3-5.3 4.4-5.3s4.3 2.3 4.3 5.2-1 5.6-4.2 5.6zm32.4-11.6h-7.4v2.2a4.8 4.8 0 00-4.6-2.5c-3.9 0-5.7 3-5.7 6.4s2.3 6.1 5.7 6.1a4.7 4.7 0 004.6-2.5v1.2c0 3.1-.7 5.3-4.2 5.3-1.7 0-3.6-.6-3.9-2.6H159c0 2.8 2.8 3.6 5.2 3.6 4.2 0 5.7-2 5.7-5.8V16.6h4.6v10.3h-2.7v1h6.3v-1h-2.2zm-11.7 11.2c-3 0-4.5-2.4-4.5-5.4 0-2.5 1.6-5 4.5-5s4.3 2.2 4.3 5-1 5.4-4.3 5.4zm38.7.2v-17h-3.5v1h2v16h-3.5v-7.3c0-3.3-1.8-4.4-5-4.4-2.7 0-4.7 1-5 3.7h1.5c.2-1.9 1.7-2.6 3.6-2.6 2.2 0 3.5 1 3.5 3.3v.9h-2.7c-2.5 0-6.4.2-6.4 3.7 0 2.7 1.8 4 4.4 4a4.7 4.7 0 004.6-2.8V28h8.4v-1zm-10.8.3a2.9 2.9 0 01-3.1-2.9c0-2.5 2.8-2.8 4.7-2.8h2.8c0 3-1.1 5.6-4.4 5.6zm-8.8-.2c-1.5 0-1.6-1.4-1.6-3.1v-7.3h4v-1.1h-4V12l-1.4.5v3h-2.3v1h2.3v7.9c0 1.7.5 3.8 2.9 3.8s3.2-1.6 3.2-4H185c0 1.7-.4 2.8-1.8 2.8z"/><path fill="#fff" d="M112.3 9.8h-3.7v3.6h3.7zm19 5.4v2.4h2l-3 6.4-2.7-6.4h1.9v-2.4h-10.2v-4.3l-3.5 1.8v2.5h-2v2.4h2v7a3.7 3.7 0 003.9 3.5c3 0 4-1.5 4-4.4h-2.2c0 .6 0 1.9-1 1.9s-1-1-1-2v-6h4.2l5 10.2c-.5 1.3-1.1 2.4-2.2 2.4a11.4 11.4 0 01-1.8-.2v2.5a12.5 12.5 0 002 .2c2.3 0 3.3-.8 4.2-2.9l6-12.2h1.2v-2.4zm-19 0h-5.4v2.4h1.8v7.7h-4V19c-.1-3-2-4-4.8-4a4.3 4.3 0 00-4 2.2 4.1 4.1 0 00-4.2-2.3 4.7 4.7 0 00-4.3 2.5v-2.1h-5v2.4h1.8v7.7h-1.8v2.5h6.9v-2.4h-1.6v-4.6c0-1.7.8-3.4 2.7-3.4a2.3 2.3 0 012.2 2.5v5.5H91v2.4h6.8v-2.4h-1.6v-4.8c0-1.7.8-3.2 2.8-3.2 1.6 0 2.1 1.1 2.1 2.5v5.5h-1.6v2.4H114v-2.4h-1.7z"/></g></g></svg>